<svg width="21" height="21" viewBox="0 0 21 21" fill="none" xmlns="http://www.w3.org/2000/svg">
<path fill-rule="evenodd" clip-rule="evenodd" d="M13.5066 7.79188L13.4969 3.00273C13.4974 1.34479 12.1559 0.000424893 10.5007 7.55788e-06C8.84552 -0.000409777 7.50339 1.34328 7.50297 3.00122L7.49337 7.79188L1.09998 11.0136C0.425487 11.3535 0 12.0444 0 12.7997V13.8042C0 14.426 0.561381 14.897 1.17369 14.789L7.49245 13.6746V16.2007L6.45276 17.4578C6.15621 17.8164 5.99396 18.2671 5.99396 18.7325V19.7662C5.99396 20.4018 6.57916 20.8761 7.20099 20.7446L10.5007 20.0463L13.7769 20.7431C14.399 20.8754 14.9849 20.4009 14.9849 19.7649V18.7256C14.9849 18.2644 14.8256 17.8175 14.5339 17.4604L13.5075 16.2039V13.6746L19.8263 14.789C20.4386 14.897 21 14.426 21 13.8042V12.7997C21 12.0444 20.5745 11.3535 19.9 11.0136L13.5066 7.79188Z" fill="#7D8592"/>
</svg>
