<svg width="18" height="20" viewBox="0 0 18 20" fill="none" xmlns="http://www.w3.org/2000/svg">
<path d="M13 0C13.5523 0 14 0.447715 14 1V2C16.2091 2 18 3.79086 18 6V16C18 18.2091 16.2091 20 14 20H4C1.79086 20 0 18.2091 0 16V6C0 3.79086 1.79086 2 4 2V1C4 0.447715 4.44772 0 5 0C5.55228 0 6 0.447715 6 1V2H12V1C12 0.447715 12.4477 0 13 0ZM2 16C2 17.0543 2.81581 17.9177 3.85059 17.9941L4 18H14C15.0543 18 15.9177 17.1842 15.9941 16.1494L16 16V9H2V16ZM6 4C6 4.55228 5.55228 5 5 5C4.48232 5 4.05621 4.60667 4.00488 4.10254L4 4C2.9457 4 2.08229 4.81581 2.00586 5.85059L2 6V7H16V6C16 4.9457 15.1842 4.08229 14.1494 4.00586L14 4C14 4.55228 13.5523 5 13 5C12.4823 5 12.0562 4.60667 12.0049 4.10254L12 4H6Z" fill="#0A1629"/>
</svg>
