<svg width="18" height="18" viewBox="0 0 18 18" fill="none" xmlns="http://www.w3.org/2000/svg">
<path d="M5 10C6.65685 10 8 11.3431 8 13V15C8 16.6569 6.65685 18 5 18H3C1.34315 18 0 16.6569 0 15V13C0 11.3431 1.34315 10 3 10H5ZM15 10C16.6569 10 18 11.3431 18 13V15C18 16.6569 16.6569 18 15 18H13C11.3431 18 10 16.6569 10 15V13C10 11.3431 11.3431 10 13 10H15ZM5 0C6.65685 0 8 1.34315 8 3V5C8 6.65685 6.65685 8 5 8H3C1.34315 8 0 6.65685 0 5V3C0 1.34315 1.34315 0 3 0H5ZM15 0C16.6569 0 18 1.34315 18 3V5C18 6.65685 16.6569 8 15 8H13C11.3431 8 10 6.65685 10 5V3C10 1.34315 11.3431 0 13 0H15Z" fill="#FFA432"/>
</svg>
