<svg width="23" height="15" viewBox="0 0 23 15" fill="none" xmlns="http://www.w3.org/2000/svg">
<path d="M7.61871 0C10.1382 8.03401e-05 12.3607 1.64639 13.0888 4.05226C13.8168 6.45813 12.8788 9.05608 10.7801 10.4466C12.5222 11.0877 14.0284 12.2412 15.0982 13.7551C15.262 13.9871 15.2822 14.2912 15.1512 14.543C15.0202 14.7947 14.7595 14.9531 14.4752 14.9531H0.76127C0.477013 14.953 0.216192 14.7947 0.0852397 14.543C-0.0455752 14.2912 -0.0244529 13.988 0.139204 13.7561C1.20909 12.2419 2.7149 11.0877 4.45736 10.4466C2.35862 9.05606 1.42059 6.45816 2.14865 4.05226C2.87677 1.64633 5.09911 0 7.61871 0ZM13.8315 0.214878C16.538 -0.543379 19.3958 0.775123 20.5693 3.32324C21.7426 5.8714 20.8833 8.89276 18.5431 10.4466C20.2853 11.0877 21.7915 12.2412 22.8613 13.7551C23.025 13.9871 23.0453 14.2912 22.9143 14.543C22.7832 14.7947 22.5226 14.9531 22.2382 14.9531H17.9799C17.684 14.9532 17.4144 14.782 17.2892 14.5145C16.7038 13.2629 15.8795 12.1367 14.8627 11.1991C14.8478 11.1853 14.8341 11.1707 14.8205 11.156C14.5546 10.9138 14.2764 10.6845 13.9875 10.4701C13.6712 10.2353 13.5871 9.79874 13.7933 9.46345C15.3341 6.95371 15.1891 3.76078 13.4273 1.40014C13.2776 1.19949 13.2365 0.938291 13.3174 0.701541C13.3983 0.464947 13.5903 0.282622 13.8315 0.214878Z" fill="#7D8592"/>
</svg>
