<svg width="20" height="20" viewBox="0 0 20 20" fill="none" xmlns="http://www.w3.org/2000/svg">
<path fill-rule="evenodd" clip-rule="evenodd" d="M10.5646 9.34278e-05H10.0424C8.50233 -0.0038273 6.98049 0.356634 5.6035 1.05216C2.247 2.72967 0.123553 6.16333 0.122099 9.92011L0.12867 10.3048C0.171061 11.4571 0.417086 12.5931 0.85436 13.6594L0.964805 13.9147L0.23871 15.6671C-0.088089 16.4556 -0.0790007 17.3433 0.263873 18.125L0.342686 18.2914C1.09054 19.7591 2.86333 20.4056 4.39117 19.7354L6.05968 19.0023L6.30351 19.1086C7.48841 19.5944 8.75954 19.8442 10.0452 19.8408C13.7996 19.8394 17.2333 17.7159 18.9128 14.3555C19.6063 12.9824 19.9668 11.4606 19.9628 9.91783L19.9628 9.39839C19.6884 4.39701 15.808 0.429097 10.9009 0.0209632L10.5646 9.34278e-05ZM10.0398 2.08858L10.5207 2.08763L10.507 2.087C14.4823 2.30639 17.6565 5.48061 17.8759 9.45593L17.8743 9.92051C17.8774 11.137 17.5938 12.3344 17.0466 13.4178C15.7187 16.0748 13.0079 17.7512 10.042 17.7524C8.82591 17.7555 7.62853 17.4719 6.5451 16.9247C6.26683 16.7841 5.94031 16.7753 5.65482 16.9005L3.55221 17.8228C3.02407 18.0545 2.40812 17.8141 2.17645 17.286C2.06216 17.0254 2.05913 16.7295 2.16806 16.4667L3.07084 14.2885C3.18734 14.0074 3.17544 13.6894 3.03826 13.4178C2.49101 12.3344 2.20742 11.137 2.21059 9.92323C2.21174 6.95504 3.88814 4.24425 6.54114 2.91833C7.62851 2.36911 8.8259 2.08549 10.0398 2.08858Z" fill="white"/>
</svg>
