<svg width="24" height="24" viewBox="0 0 24 24" fill="none" xmlns="http://www.w3.org/2000/svg">
<path d="M19.5062 15.1308C19.9863 14.8581 20.5966 15.0259 20.8695 15.5058C21.1228 15.9517 20.9959 16.5097 20.5922 16.8056L20.4945 16.8691L13.8998 20.6172C13.07 21.0929 12.0574 21.1251 11.1996 20.7129L11.0179 20.6181L4.50134 16.8672C4.0227 16.5916 3.85765 15.9796 4.13318 15.501C4.38906 15.0566 4.93509 14.883 5.3949 15.081L5.49939 15.1338L12.0121 18.8828C12.2523 19.0198 12.5457 19.0371 12.8011 18.9326L12.9086 18.8799L19.5062 15.1308ZM19.6029 11.4707C20.0831 11.1978 20.6933 11.3665 20.9662 11.8467C21.2194 12.2925 21.0927 12.8506 20.6888 13.1465L20.5912 13.2099L13.9965 16.957C13.1667 17.4328 12.1541 17.4659 11.2963 17.0537L11.1146 16.958L4.59802 13.207C4.11949 12.9315 3.9554 12.3204 4.23083 11.8418C4.48666 11.3974 5.03176 11.2229 5.49158 11.4209L5.59607 11.4736L12.1097 15.2226C12.3499 15.3596 12.6425 15.3768 12.8978 15.2724L13.0052 15.2207L19.6029 11.4707ZM10.9574 2.6367C11.5973 2.24606 12.4025 2.24606 13.0424 2.6367L19.1586 6.3701C20.4462 7.15632 20.4327 9.03095 19.1342 9.79881L13.0404 13.4004C12.4141 13.7704 11.6362 13.771 11.0092 13.4023L4.87732 9.79686C3.57489 9.03105 3.55945 7.15349 4.849 6.3662L10.9574 2.6367Z" fill="#7D8592"/>
</svg>
