<svg width="22" height="23" viewBox="0 0 22 23" fill="none" xmlns="http://www.w3.org/2000/svg">
<path fill-rule="evenodd" clip-rule="evenodd" d="M11.4349 1.49035C13.422 -0.496785 16.6438 -0.496785 18.6309 1.49035C20.5578 3.41728 20.6162 6.50515 18.8057 8.5028L18.6305 8.68681L9.27246 18.0347C8.08026 19.2269 6.14733 19.2269 4.95514 18.0347C3.81063 16.8902 3.76485 15.063 4.81817 13.8635L4.95556 13.717L13.5918 5.09091C13.9893 4.69389 14.6334 4.69427 15.0304 5.09175C15.3969 5.45866 15.4247 6.03568 15.1142 6.43455L15.0295 6.53033L6.39371 15.156C5.99602 15.5537 5.99602 16.1985 6.39371 16.5961C6.76081 16.9632 7.33845 16.9915 7.73825 16.6806L7.83427 16.5958L17.1924 7.24785C18.385 6.05521 18.385 4.12156 17.1924 2.92893C16.0474 1.784 14.2196 1.7382 13.02 2.79154L12.8734 2.92893L3.52514 12.2772C1.53755 14.2648 1.53755 17.4873 3.52514 19.4749C5.45249 21.4022 8.54105 21.4606 10.5388 19.6501L10.7228 19.4749L20.0711 10.1266C20.4683 9.72934 21.1124 9.72934 21.5097 10.1266C21.8764 10.4933 21.9046 11.0703 21.5943 11.4693L21.5097 11.5652L12.1614 20.9135C9.37929 23.6955 4.86864 23.6955 2.08656 20.9135C-0.632292 18.1946 -0.694084 13.8249 1.90119 11.031L2.08656 10.8387L11.4349 1.49035Z" fill="#6D5DD3"/>
</svg>
