<svg width="20" height="20" viewBox="0 0 20 20" fill="none" xmlns="http://www.w3.org/2000/svg">
<path d="M11.5564 17.1035C12.327 17.1035 12.8081 17.9378 12.4216 18.6045C11.9207 19.4681 10.9981 20 9.99976 20C9.00142 20 8.07878 19.4681 7.57788 18.6045C7.21066 17.9712 7.62662 17.1863 8.32983 17.1094L8.44312 17.1035H11.5564ZM9.99976 0C13.9508 1.83988e-05 17.1685 3.13986 17.2957 7.06055L17.2996 7.30078V11.8018C17.2996 12.6915 17.9831 13.4217 18.8533 13.4961L19.1326 13.5098C20.2438 13.629 20.2871 15.2404 19.2615 15.4746L19.1326 15.4951L18.9998 15.502H0.999756L0.866943 15.4951C-0.288824 15.3711 -0.288824 13.6338 0.866943 13.5098L1.14624 13.4961C1.96808 13.4258 2.62287 12.7704 2.69312 11.9482L2.69995 11.8018V7.30078C2.70013 3.26868 5.96815 0 9.99976 0ZM9.99976 2C7.14586 2 4.81843 4.25657 4.70386 7.08301L4.69995 7.30078V11.8018C4.69995 12.3103 4.59746 12.7952 4.41187 13.2363L4.31226 13.4531L4.28491 13.502H15.7136L15.6873 13.4531C15.5034 13.085 15.379 12.6813 15.3269 12.2559L15.3044 11.998L15.2996 11.8018V7.30078C15.2994 4.37318 12.9267 2.00002 9.99976 2Z" fill="#0A1629"/>
</svg>
