<svg width="19" height="19" viewBox="0 0 19 19" fill="none" xmlns="http://www.w3.org/2000/svg">
<path d="M8.50005 0C13.1945 0 17.0001 3.8056 17.0001 8.50005C17.0001 10.4891 16.3145 12.3167 15.17 13.7647L15.5665 14.1515L18.7072 17.2931C19.0977 17.6836 19.0977 18.3166 18.7072 18.7072C18.3467 19.0676 17.7791 19.0952 17.3868 18.7902L17.2931 18.7072L14.1602 15.5743L13.755 15.1778C12.3085 16.3177 10.4846 17.0001 8.50005 17.0001C3.8056 17.0001 0 13.1945 0 8.50005C0 3.8056 3.8056 0 8.50005 0ZM8.50005 2.00001C4.91018 2.00001 2.00001 4.91018 2.00001 8.50005C2.00001 12.0899 4.91018 15.0001 8.50005 15.0001C12.0899 15.0001 15.0001 12.0899 15.0001 8.50005C15.0001 4.91018 12.0899 2.00001 8.50005 2.00001Z" fill="#0A1629"/>
</svg>
