<svg width="16" height="16" viewBox="0 0 16 16" fill="none" xmlns="http://www.w3.org/2000/svg">
<path d="M8 0C12.4183 0 16 3.58172 16 8C16 12.4183 12.4183 16 8 16C3.58172 16 0 12.4183 0 8C0 3.58172 3.58172 0 8 0ZM8 4C7.44772 4 7 4.44772 7 5V8.75L7.00684 8.87012C7.0496 9.22459 7.28007 9.53311 7.61523 9.67285L10.6152 10.9229L10.7256 10.9619C11.2068 11.0998 11.7255 10.858 11.9229 10.3848L11.9619 10.2744C12.0998 9.79319 11.858 9.27446 11.3848 9.07715L9 8.08301V5L8.99316 4.88379C8.9354 4.38645 8.51284 4 8 4Z" fill="#7D8592"/>
</svg>
