<svg width="21" height="20" viewBox="0 0 21 20" fill="none" xmlns="http://www.w3.org/2000/svg">
<path d="M9.28765 9.29332C9.64815 8.93302 10.2148 8.90536 10.6071 9.21031L10.7018 9.29332L14.702 13.2936C15.0923 13.6841 15.0923 14.3172 14.702 14.7077C14.5006 14.9091 14.2346 15.0051 13.9705 14.9987C13.764 14.9925 13.559 14.9241 13.3875 14.7907L13.2937 14.7077L12.7146 14.1286C12.7123 14.1286 12.71 14.1285 12.7078 14.1286L10.9948 12.4156V19.0009C10.9948 19.5521 10.5485 19.9982 9.99765 20C9.48611 19.9985 9.06502 19.6136 9.00736 19.1171L9.00052 19.0009V14.1305C8.99856 14.1305 8.99662 14.1296 8.99466 14.1295V12.4156L6.70156 14.7077C6.50013 14.9091 6.2341 15.0051 5.97007 14.9987C5.76354 14.9925 5.55852 14.9241 5.38703 14.7907L5.29328 14.7077C5.05144 14.4659 4.95917 14.1308 5.01689 13.818C5.01493 13.8177 5.01299 13.8173 5.01103 13.817C5.03932 13.6639 5.10325 13.5161 5.20343 13.3873L5.28742 13.2936L9.28765 9.29332ZM0.908256 4.03618C2.30834 1.33603 5.20831 -0.264064 8.20848 0.0359518C11.2086 0.43597 13.709 2.63578 14.409 5.63589H15.6093C17.6092 5.63607 19.4089 7.13621 20.009 9.13609C20.309 10.5362 20.3088 12.3224 19.3107 13.0553C18.8393 13.4165 17.6094 13.6976 15.9892 13.8873C15.9625 13.414 15.7707 12.9481 15.4091 12.5865L11.4089 8.58625L11.2692 8.46027L11.2214 8.42023C10.4288 7.80401 9.29478 7.87108 8.5796 8.58625L4.57937 12.5865L4.45436 12.7261C4.22919 13.0147 4.09042 13.3379 4.03246 13.6666C3.11416 13.5057 2.31513 13.3035 1.70029 13.0553C-0.557246 10.656 -0.291748 6.53628 0.908256 4.03618Z" fill="#FFA432"/>
</svg>
